<svg id="YouTube_icon_bianco" xmlns="http://www.w3.org/2000/svg" xmlns:xlink="http://www.w3.org/1999/xlink" width="500" height="500" viewBox="0 0 500 500">
  <defs>
    <clipPath id="clip-path">
      <rect id="Rectangle_16" data-name="Rectangle 16" width="500" height="500" fill="none"/>
    </clipPath>
  </defs>
  <g id="Group_15" data-name="Group 15" transform="translate(0 0)" clip-path="url(#clip-path)">
    <path id="Path_33" data-name="Path 33" d="M212.424,318.971l.038-.019,113.084-59.268L212.424,200ZM0,0V500H500V0ZM437.523,270.334a565.362,565.362,0,0,1-3.75,60.393,80.725,80.725,0,0,1-15,37.031,51.761,51.761,0,0,1-35.138,15.562l-2.438.262c-51.864,3.75-130.278,3.9-131.253,3.9s-97.821-.919-127.5-3.75c-1.35-.281-3.131-.469-5.1-.712a55.471,55.471,0,0,1-36.263-15.262,81.13,81.13,0,0,1-14.888-37.031,565.356,565.356,0,0,1-3.75-60.393V242.022a565.705,565.705,0,0,1,3.75-60.412,81.13,81.13,0,0,1,14.888-37.031,51.85,51.85,0,0,1,35.176-15.562l2.419-.262C170.611,125,249.137,125,249.925,125l.019.019c.844,0,79.371,0,131.253,3.75l2.4.244a51.85,51.85,0,0,1,35.176,15.562,80.725,80.725,0,0,1,15,37.031,565.711,565.711,0,0,1,3.75,60.412Z" transform="translate(0 0)" fill="#fff"/>
  </g>
</svg>
