<svg xmlns="http://www.w3.org/2000/svg" xmlns:xlink="http://www.w3.org/1999/xlink" width="500" height="500" viewBox="0 0 500 500">
  <defs>
    <clipPath id="clip-path">
      <path id="Path_32" data-name="Path 32" d="M213.326,263.324a50.005,50.005,0,0,1,50.008-50.006v.019a50,50,0,1,1-50.008,49.987m-24.994,0a75,75,0,1,0,75-75,75,75,0,0,0-75,75m137.235-83.755a25.543,25.543,0,0,0,25.5,25.575l.019.019a25.547,25.547,0,0,0,.056-51.093h-.075a25.527,25.527,0,0,0-25.5,25.5M113.329,369.41V157.294a44,44,0,0,1,43.932-43.968l212.162.019a43.984,43.984,0,0,1,43.932,43.949V369.41a43.98,43.98,0,0,1-43.932,43.931H157.262a43.98,43.98,0,0,1-43.932-43.931m-100-356.077v500h500v-500Z" transform="translate(-13.333 -13.333)" fill="none"/>
    </clipPath>
  </defs>
  <g id="Instagram_icon_bianco" transform="translate(-13.333 -13.333)">
    <g id="Group_13" data-name="Group 13" transform="translate(13.333 13.333)" clip-path="url(#clip-path)">
      <rect id="Rectangle_15" data-name="Rectangle 15" width="1000.019" height="999.981" transform="translate(-250 -249.99)" fill="#fff"/>
    </g>
  </g>
</svg>
