<svg id="X_icon_bianco" xmlns="http://www.w3.org/2000/svg" xmlns:xlink="http://www.w3.org/1999/xlink" width="500" height="500" viewBox="0 0 500 500">
  <defs>
    <clipPath id="clip-path">
      <rect id="Rectangle_12" data-name="Rectangle 12" width="500" height="500" fill="none"/>
    </clipPath>
  </defs>
  <g id="Group_8" data-name="Group 8" transform="translate(0 0)" clip-path="url(#clip-path)">
    <path id="Path_29" data-name="Path 29" d="M185.7,209.226q-10.884-14.372-21.75-28.743L120.58,123.165Q91.612,84.831,62.606,46.516q-14.09-18.675-28.2-37.331a2.88,2.88,0,0,0-2.625-1.294c-7.275.056-14.55.019-21.825.037a2.246,2.246,0,0,0-1.369.187,4.469,4.469,0,0,0,.9,1.35q3.628,4.753,7.256,9.487Q31.763,38.584,46.781,58.234,64.275,81.128,81.806,104L111.9,143.377l38.7,50.568q5.991,7.847,12,15.694a1.893,1.893,0,0,0,1.669.975c7.087-.019,14.156,0,21.225,0,.281,0,.619.094.788-.169.244-.356-.15-.562-.3-.825a2.993,2.993,0,0,0-.281-.394" transform="translate(152.435 140.063)" fill="#fff"/>
    <path id="Path_30" data-name="Path 30" d="M0,500H500V0H0ZM390.014,376.57c-.488.019-.956.075-1.444.075q-41.6,0-83.193.019a2.9,2.9,0,0,1-2.625-1.294q-8.465-11.137-16.987-22.237-24.3-31.781-48.637-63.58c-.975-1.275-.975-1.294-2.062-.056q-18.309,20.925-36.618,41.831-19.378,22.134-38.737,44.287a2.738,2.738,0,0,1-2.269,1.05q-20.081-.028-40.162-.019c-.412,0-.994.187-1.219-.263-.244-.487.3-.769.581-1.087q12.459-14.259,24.918-28.5,14.878-17.015,29.775-34.031,13.19-15.047,26.362-30.112,8.662-9.9,17.306-19.781c.9-1.031.881-1.031.056-2.137l-.15-.187q-26.072-34.087-52.143-68.193-25.818-33.778-51.637-67.518A5.563,5.563,0,0,0,110,123.58c.056-.075-.131-.244.113-.244.319.019.637,0,.975,0h87.9c.244.338.45.675.694.994q18.844,24.89,37.668,49.781,10.884,14.372,21.75,28.743c.844,1.125.975,1.125,1.875.094,1.256-1.406,2.494-2.831,3.731-4.256l28.012-32.025q13.922-15.919,27.862-31.837,5.034-5.766,10.106-11.494h42.918a4.772,4.772,0,0,1-1.519,2.119q-8.915,10.237-17.85,20.418-19.884,22.725-39.787,45.468l-33.018,37.743c-1.556,1.781-1.575,1.275-.094,3.225q21.909,29,43.856,57.974,29.25,38.643,58.462,77.305c2.138,2.812,4.237,5.662,6.356,8.494Z" transform="translate(0 0)" fill="#fff"/>
  </g>
</svg>
